<?xml version="1.0" encoding="UTF-8"?>
<svg xmlns="http://www.w3.org/2000/svg" xmlns:xlink="http://www.w3.org/1999/xlink" width="1920pt" height="1080pt" viewBox="0 0 1920 1080" version="1.1">
<defs>
<g>
<symbol overflow="visible" id="glyph0-0">
<path style="stroke:none;" d="M 0.832031 0 L 0.832031 -5 L 5.832031 -5 L 5.832031 0 Z M 1.25 -0.417969 L 5.417969 -0.417969 L 5.417969 -4.582031 L 1.25 -4.582031 Z "/>
</symbol>
<symbol overflow="visible" id="glyph0-1">
<path style="stroke:none;" d="M 4.800781 0 L 3.503906 0 C 3.253906 -0.382812 2.976562 -0.765625 2.675781 -1.148438 C 2.367188 -1.53125 2.046875 -1.898438 1.714844 -2.257812 L 1.628906 -2.257812 L 1.628906 -0.652344 C 1.628906 -0.574219 1.640625 -0.511719 1.667969 -0.457031 C 1.695312 -0.402344 1.746094 -0.355469 1.820312 -0.320312 C 1.851562 -0.304688 1.914062 -0.285156 2.011719 -0.265625 C 2.105469 -0.242188 2.1875 -0.230469 2.25 -0.230469 L 2.25 0 L 0.332031 0 L 0.332031 -0.230469 C 0.378906 -0.230469 0.449219 -0.238281 0.546875 -0.25 C 0.640625 -0.257812 0.710938 -0.269531 0.75 -0.289062 C 0.8125 -0.3125 0.859375 -0.355469 0.890625 -0.414062 C 0.921875 -0.464844 0.9375 -0.53125 0.9375 -0.617188 L 0.9375 -3.949219 C 0.9375 -4.019531 0.921875 -4.082031 0.898438 -4.140625 C 0.871094 -4.191406 0.824219 -4.234375 0.75 -4.273438 C 0.691406 -4.296875 0.621094 -4.324219 0.542969 -4.347656 C 0.460938 -4.371094 0.390625 -4.382812 0.332031 -4.386719 L 0.332031 -4.617188 L 2.25 -4.617188 L 2.25 -4.386719 C 2.1875 -4.382812 2.109375 -4.371094 2.019531 -4.355469 C 1.925781 -4.335938 1.859375 -4.320312 1.820312 -4.308594 C 1.742188 -4.277344 1.691406 -4.234375 1.667969 -4.179688 C 1.640625 -4.117188 1.628906 -4.050781 1.628906 -3.980469 L 1.628906 -2.386719 L 1.695312 -2.386719 C 1.886719 -2.546875 2.078125 -2.71875 2.269531 -2.902344 C 2.457031 -3.078125 2.628906 -3.257812 2.785156 -3.4375 C 2.953125 -3.632812 3.078125 -3.789062 3.160156 -3.910156 C 3.238281 -4.027344 3.28125 -4.132812 3.28125 -4.226562 C 3.28125 -4.253906 3.257812 -4.28125 3.21875 -4.304688 C 3.175781 -4.324219 3.132812 -4.339844 3.082031 -4.355469 C 3.019531 -4.363281 2.964844 -4.371094 2.917969 -4.378906 C 2.871094 -4.378906 2.832031 -4.382812 2.800781 -4.386719 L 2.800781 -4.617188 L 4.535156 -4.617188 L 4.535156 -4.386719 C 4.527344 -4.382812 4.511719 -4.382812 4.492188 -4.382812 C 4.46875 -4.382812 4.445312 -4.378906 4.417969 -4.378906 C 4.386719 -4.371094 4.355469 -4.367188 4.324219 -4.363281 C 4.292969 -4.355469 4.253906 -4.347656 4.210938 -4.34375 C 4.128906 -4.320312 4.050781 -4.292969 3.972656 -4.257812 C 3.890625 -4.21875 3.824219 -4.171875 3.773438 -4.117188 C 3.546875 -3.863281 3.3125 -3.601562 3.074219 -3.328125 C 2.828125 -3.054688 2.585938 -2.804688 2.351562 -2.585938 C 2.679688 -2.210938 2.953125 -1.890625 3.171875 -1.621094 C 3.382812 -1.351562 3.613281 -1.066406 3.863281 -0.761719 C 3.949219 -0.644531 4.042969 -0.550781 4.140625 -0.480469 C 4.230469 -0.410156 4.308594 -0.355469 4.378906 -0.320312 C 4.433594 -0.292969 4.503906 -0.273438 4.589844 -0.257812 C 4.671875 -0.242188 4.742188 -0.230469 4.800781 -0.230469 Z "/>
</symbol>
<symbol overflow="visible" id="glyph0-2">
<path style="stroke:none;" d="M 1.789062 0 L 0.242188 0 L 0.242188 -0.214844 C 0.289062 -0.21875 0.339844 -0.222656 0.394531 -0.226562 C 0.445312 -0.230469 0.492188 -0.238281 0.535156 -0.253906 C 0.589844 -0.269531 0.636719 -0.304688 0.667969 -0.355469 C 0.695312 -0.402344 0.707031 -0.464844 0.710938 -0.546875 L 0.710938 -2.527344 C 0.707031 -2.589844 0.691406 -2.652344 0.664062 -2.714844 C 0.628906 -2.769531 0.585938 -2.820312 0.535156 -2.863281 C 0.488281 -2.886719 0.429688 -2.910156 0.355469 -2.929688 C 0.273438 -2.945312 0.203125 -2.953125 0.140625 -2.960938 L 0.140625 -3.175781 L 1.273438 -3.25 L 1.316406 -3.203125 L 1.316406 -0.585938 C 1.3125 -0.507812 1.328125 -0.441406 1.359375 -0.394531 C 1.390625 -0.339844 1.4375 -0.304688 1.5 -0.285156 C 1.546875 -0.265625 1.589844 -0.25 1.636719 -0.238281 C 1.679688 -0.226562 1.730469 -0.21875 1.789062 -0.214844 Z M 1.382812 -4.515625 C 1.382812 -4.386719 1.339844 -4.277344 1.261719 -4.191406 C 1.175781 -4.097656 1.078125 -4.054688 0.960938 -4.054688 C 0.847656 -4.054688 0.75 -4.097656 0.671875 -4.183594 C 0.589844 -4.269531 0.550781 -4.367188 0.550781 -4.484375 C 0.550781 -4.601562 0.589844 -4.707031 0.671875 -4.796875 C 0.75 -4.882812 0.847656 -4.925781 0.960938 -4.929688 C 1.082031 -4.925781 1.179688 -4.886719 1.261719 -4.804688 C 1.339844 -4.71875 1.382812 -4.621094 1.382812 -4.515625 Z "/>
</symbol>
<symbol overflow="visible" id="glyph0-3">
<path style="stroke:none;" d="M 2.691406 -2.796875 C 2.6875 -2.679688 2.660156 -2.582031 2.609375 -2.5 C 2.550781 -2.414062 2.46875 -2.371094 2.359375 -2.375 C 2.238281 -2.371094 2.144531 -2.402344 2.082031 -2.46875 C 2.011719 -2.527344 1.980469 -2.597656 1.984375 -2.675781 C 1.980469 -2.71875 1.984375 -2.761719 1.996094 -2.804688 C 2 -2.839844 2.007812 -2.878906 2.019531 -2.921875 C 1.914062 -2.917969 1.792969 -2.875 1.65625 -2.796875 C 1.519531 -2.710938 1.40625 -2.597656 1.3125 -2.449219 L 1.3125 -0.578125 C 1.3125 -0.5 1.324219 -0.4375 1.355469 -0.390625 C 1.378906 -0.339844 1.425781 -0.304688 1.492188 -0.285156 C 1.542969 -0.261719 1.613281 -0.246094 1.703125 -0.238281 C 1.785156 -0.226562 1.859375 -0.21875 1.925781 -0.214844 L 1.925781 0 L 0.234375 0 L 0.234375 -0.214844 C 0.28125 -0.21875 0.332031 -0.222656 0.386719 -0.226562 C 0.441406 -0.230469 0.488281 -0.238281 0.527344 -0.253906 C 0.585938 -0.269531 0.628906 -0.304688 0.660156 -0.355469 C 0.6875 -0.402344 0.703125 -0.464844 0.707031 -0.546875 L 0.707031 -2.527344 C 0.703125 -2.589844 0.6875 -2.65625 0.660156 -2.726562 C 0.625 -2.789062 0.582031 -2.84375 0.527344 -2.882812 C 0.484375 -2.90625 0.433594 -2.921875 0.378906 -2.9375 C 0.320312 -2.945312 0.261719 -2.953125 0.199219 -2.960938 L 0.199219 -3.175781 L 1.265625 -3.25 L 1.3125 -3.203125 L 1.3125 -2.75 L 1.328125 -2.75 C 1.460938 -2.921875 1.609375 -3.058594 1.777344 -3.152344 C 1.9375 -3.242188 2.089844 -3.285156 2.230469 -3.289062 C 2.363281 -3.285156 2.472656 -3.242188 2.5625 -3.152344 C 2.644531 -3.0625 2.6875 -2.941406 2.691406 -2.796875 Z "/>
</symbol>
<symbol overflow="visible" id="glyph0-4">
<path style="stroke:none;" d="M 3.367188 -1.636719 C 3.363281 -1.40625 3.328125 -1.183594 3.257812 -0.96875 C 3.1875 -0.75 3.085938 -0.566406 2.953125 -0.417969 C 2.800781 -0.238281 2.625 -0.109375 2.429688 -0.0273438 C 2.230469 0.0546875 2.007812 0.09375 1.765625 0.0976562 C 1.558594 0.09375 1.367188 0.0585938 1.183594 -0.015625 C 0.996094 -0.0898438 0.832031 -0.203125 0.691406 -0.355469 C 0.550781 -0.5 0.4375 -0.675781 0.351562 -0.886719 C 0.265625 -1.09375 0.222656 -1.328125 0.226562 -1.589844 C 0.222656 -2.089844 0.367188 -2.5 0.664062 -2.820312 C 0.953125 -3.136719 1.339844 -3.296875 1.816406 -3.300781 C 2.261719 -3.296875 2.628906 -3.144531 2.925781 -2.84375 C 3.214844 -2.539062 3.363281 -2.136719 3.367188 -1.636719 Z M 2.691406 -1.628906 C 2.6875 -1.792969 2.671875 -1.964844 2.640625 -2.144531 C 2.605469 -2.324219 2.558594 -2.476562 2.496094 -2.605469 C 2.425781 -2.738281 2.332031 -2.847656 2.222656 -2.929688 C 2.105469 -3.011719 1.96875 -3.050781 1.808594 -3.054688 C 1.640625 -3.050781 1.496094 -3.011719 1.378906 -2.929688 C 1.257812 -2.84375 1.164062 -2.730469 1.089844 -2.589844 C 1.019531 -2.457031 0.96875 -2.304688 0.945312 -2.136719 C 0.914062 -1.964844 0.902344 -1.800781 0.902344 -1.648438 C 0.902344 -1.4375 0.917969 -1.246094 0.953125 -1.070312 C 0.984375 -0.890625 1.039062 -0.730469 1.113281 -0.59375 C 1.183594 -0.453125 1.273438 -0.34375 1.390625 -0.265625 C 1.5 -0.183594 1.640625 -0.144531 1.808594 -0.148438 C 2.078125 -0.144531 2.292969 -0.277344 2.453125 -0.542969 C 2.609375 -0.804688 2.6875 -1.167969 2.691406 -1.628906 Z "/>
</symbol>
<symbol overflow="visible" id="glyph0-5">
<path style="stroke:none;" d="M 3.777344 0 L 2.210938 0 L 2.210938 -0.214844 C 2.257812 -0.21875 2.3125 -0.222656 2.375 -0.226562 C 2.429688 -0.230469 2.480469 -0.238281 2.523438 -0.253906 C 2.582031 -0.269531 2.625 -0.304688 2.65625 -0.355469 C 2.683594 -0.402344 2.699219 -0.464844 2.703125 -0.546875 L 2.703125 -2.195312 C 2.699219 -2.421875 2.644531 -2.597656 2.539062 -2.722656 C 2.429688 -2.84375 2.300781 -2.90625 2.148438 -2.910156 C 2.027344 -2.90625 1.921875 -2.886719 1.828125 -2.855469 C 1.734375 -2.816406 1.648438 -2.773438 1.574219 -2.722656 C 1.5 -2.671875 1.441406 -2.617188 1.402344 -2.5625 C 1.355469 -2.5 1.328125 -2.457031 1.3125 -2.425781 L 1.3125 -0.578125 C 1.3125 -0.503906 1.324219 -0.441406 1.355469 -0.394531 C 1.382812 -0.34375 1.429688 -0.308594 1.492188 -0.285156 C 1.535156 -0.261719 1.585938 -0.246094 1.640625 -0.238281 C 1.695312 -0.226562 1.75 -0.21875 1.804688 -0.214844 L 1.804688 0 L 0.234375 0 L 0.234375 -0.214844 C 0.28125 -0.21875 0.332031 -0.222656 0.386719 -0.226562 C 0.441406 -0.230469 0.488281 -0.238281 0.527344 -0.253906 C 0.585938 -0.269531 0.628906 -0.304688 0.660156 -0.355469 C 0.6875 -0.402344 0.703125 -0.464844 0.707031 -0.546875 L 0.707031 -2.527344 C 0.703125 -2.597656 0.6875 -2.667969 0.660156 -2.730469 C 0.625 -2.792969 0.582031 -2.84375 0.527344 -2.882812 C 0.484375 -2.90625 0.433594 -2.921875 0.378906 -2.9375 C 0.320312 -2.945312 0.261719 -2.953125 0.199219 -2.960938 L 0.199219 -3.175781 L 1.265625 -3.25 L 1.3125 -3.203125 L 1.3125 -2.75 L 1.328125 -2.75 C 1.378906 -2.796875 1.445312 -2.859375 1.523438 -2.9375 C 1.601562 -3.007812 1.675781 -3.066406 1.746094 -3.113281 C 1.824219 -3.160156 1.917969 -3.203125 2.027344 -3.242188 C 2.136719 -3.273438 2.261719 -3.292969 2.40625 -3.296875 C 2.710938 -3.292969 2.9375 -3.195312 3.089844 -3.007812 C 3.234375 -2.8125 3.308594 -2.558594 3.3125 -2.242188 L 3.3125 -0.574219 C 3.308594 -0.496094 3.324219 -0.433594 3.351562 -0.386719 C 3.375 -0.339844 3.417969 -0.304688 3.484375 -0.28125 C 3.535156 -0.257812 3.582031 -0.242188 3.621094 -0.234375 C 3.660156 -0.226562 3.710938 -0.21875 3.777344 -0.214844 Z "/>
</symbol>
</g>
</defs>
<g id="surface1">
<g style="fill:rgb(100%,100%,100%);fill-opacity:1;">
  <use xlink:href="#glyph0-1" x="30" y="26.112305"/>
  <use xlink:href="#glyph0-2" x="35" y="26.112305"/>
  <use xlink:href="#glyph0-3" x="37" y="26.112305"/>
  <use xlink:href="#glyph0-4" x="40" y="26.112305"/>
  <use xlink:href="#glyph0-5" x="44" y="26.112305"/>
</g>
</g>
</svg>
