<?xml version="1.0" encoding="UTF-8"?>
<svg xmlns="http://www.w3.org/2000/svg" xmlns:xlink="http://www.w3.org/1999/xlink" width="1920pt" height="1080pt" viewBox="0 0 1920 1080" version="1.1">
<defs>
<g>
<symbol overflow="visible" id="glyph0-0">
<path style="stroke:none;" d="M 0.625 0 L 0.625 -3.75 L 4.375 -3.75 L 4.375 0 Z M 0.9375 -0.3125 L 4.0625 -0.3125 L 4.0625 -3.4375 L 0.9375 -3.4375 Z "/>
</symbol>
<symbol overflow="visible" id="glyph0-1">
<path style="stroke:none;" d="M 3.824219 0 L 2.386719 0 L 2.386719 -0.171875 C 2.421875 -0.171875 2.480469 -0.179688 2.554688 -0.1875 C 2.628906 -0.195312 2.679688 -0.203125 2.710938 -0.21875 C 2.753906 -0.234375 2.789062 -0.265625 2.816406 -0.304688 C 2.835938 -0.34375 2.847656 -0.394531 2.851562 -0.460938 L 2.851562 -1.695312 L 1.222656 -1.695312 L 1.222656 -0.488281 C 1.21875 -0.425781 1.226562 -0.378906 1.25 -0.34375 C 1.265625 -0.300781 1.304688 -0.265625 1.363281 -0.242188 C 1.386719 -0.222656 1.433594 -0.207031 1.507812 -0.195312 C 1.578125 -0.179688 1.636719 -0.171875 1.675781 -0.171875 L 1.675781 0 L 0.238281 0 L 0.238281 -0.171875 C 0.273438 -0.171875 0.328125 -0.179688 0.40625 -0.1875 C 0.476562 -0.195312 0.53125 -0.203125 0.5625 -0.21875 C 0.609375 -0.234375 0.644531 -0.265625 0.667969 -0.304688 C 0.691406 -0.34375 0.703125 -0.394531 0.703125 -0.460938 L 0.703125 -2.960938 C 0.703125 -3.007812 0.691406 -3.054688 0.671875 -3.101562 C 0.648438 -3.140625 0.613281 -3.175781 0.5625 -3.207031 C 0.515625 -3.222656 0.460938 -3.242188 0.402344 -3.261719 C 0.335938 -3.273438 0.28125 -3.28125 0.238281 -3.289062 L 0.238281 -3.464844 L 1.675781 -3.464844 L 1.675781 -3.289062 C 1.628906 -3.285156 1.570312 -3.28125 1.507812 -3.269531 C 1.4375 -3.253906 1.390625 -3.242188 1.363281 -3.234375 C 1.304688 -3.210938 1.265625 -3.175781 1.25 -3.132812 C 1.226562 -3.085938 1.21875 -3.035156 1.222656 -2.984375 L 1.222656 -1.910156 L 2.851562 -1.910156 L 2.851562 -2.960938 C 2.847656 -3.007812 2.835938 -3.054688 2.820312 -3.101562 C 2.796875 -3.140625 2.761719 -3.175781 2.710938 -3.207031 C 2.664062 -3.222656 2.609375 -3.242188 2.550781 -3.261719 C 2.484375 -3.273438 2.429688 -3.28125 2.386719 -3.289062 L 2.386719 -3.464844 L 3.824219 -3.464844 L 3.824219 -3.289062 C 3.777344 -3.285156 3.722656 -3.28125 3.65625 -3.269531 C 3.589844 -3.253906 3.539062 -3.242188 3.511719 -3.234375 C 3.453125 -3.210938 3.417969 -3.175781 3.398438 -3.132812 C 3.378906 -3.085938 3.367188 -3.035156 3.371094 -2.984375 L 3.371094 -0.488281 C 3.367188 -0.425781 3.378906 -0.378906 3.398438 -0.34375 C 3.417969 -0.300781 3.453125 -0.265625 3.511719 -0.242188 C 3.535156 -0.222656 3.585938 -0.207031 3.65625 -0.195312 C 3.726562 -0.179688 3.78125 -0.171875 3.824219 -0.171875 Z "/>
</symbol>
<symbol overflow="visible" id="glyph0-2">
<path style="stroke:none;" d="M 2.3125 -0.566406 C 2.210938 -0.371094 2.078125 -0.21875 1.910156 -0.105469 C 1.738281 0.00390625 1.542969 0.0585938 1.324219 0.0625 C 1.128906 0.0585938 0.957031 0.0273438 0.816406 -0.0390625 C 0.667969 -0.105469 0.550781 -0.199219 0.457031 -0.316406 C 0.363281 -0.433594 0.292969 -0.570312 0.246094 -0.726562 C 0.199219 -0.882812 0.175781 -1.046875 0.175781 -1.222656 C 0.175781 -1.375 0.199219 -1.527344 0.25 -1.683594 C 0.296875 -1.832031 0.371094 -1.96875 0.46875 -2.089844 C 0.5625 -2.203125 0.675781 -2.296875 0.8125 -2.367188 C 0.949219 -2.4375 1.105469 -2.472656 1.277344 -2.476562 C 1.449219 -2.472656 1.597656 -2.445312 1.726562 -2.390625 C 1.851562 -2.335938 1.953125 -2.257812 2.035156 -2.164062 C 2.105469 -2.070312 2.160156 -1.964844 2.199219 -1.839844 C 2.234375 -1.714844 2.253906 -1.582031 2.257812 -1.441406 L 2.257812 -1.28125 L 0.660156 -1.28125 C 0.65625 -1.121094 0.671875 -0.976562 0.703125 -0.847656 C 0.734375 -0.71875 0.78125 -0.605469 0.851562 -0.507812 C 0.910156 -0.410156 0.992188 -0.335938 1.097656 -0.285156 C 1.199219 -0.226562 1.324219 -0.199219 1.464844 -0.203125 C 1.609375 -0.199219 1.734375 -0.234375 1.839844 -0.304688 C 1.941406 -0.371094 2.042969 -0.492188 2.144531 -0.671875 Z M 1.773438 -1.484375 C 1.769531 -1.570312 1.761719 -1.667969 1.75 -1.777344 C 1.730469 -1.878906 1.707031 -1.964844 1.675781 -2.035156 C 1.636719 -2.105469 1.585938 -2.167969 1.523438 -2.21875 C 1.457031 -2.261719 1.371094 -2.285156 1.273438 -2.289062 C 1.097656 -2.285156 0.957031 -2.214844 0.84375 -2.074219 C 0.730469 -1.933594 0.667969 -1.734375 0.660156 -1.484375 Z "/>
</symbol>
<symbol overflow="visible" id="glyph0-3">
<path style="stroke:none;" d="M 2.019531 -2.097656 C 2.015625 -2.011719 1.996094 -1.9375 1.957031 -1.875 C 1.917969 -1.8125 1.855469 -1.78125 1.769531 -1.78125 C 1.675781 -1.78125 1.605469 -1.804688 1.558594 -1.851562 C 1.511719 -1.898438 1.488281 -1.949219 1.488281 -2.007812 C 1.488281 -2.042969 1.488281 -2.074219 1.496094 -2.105469 C 1.5 -2.128906 1.507812 -2.160156 1.515625 -2.191406 C 1.433594 -2.191406 1.34375 -2.160156 1.242188 -2.097656 C 1.140625 -2.035156 1.054688 -1.945312 0.984375 -1.835938 L 0.984375 -0.433594 C 0.984375 -0.375 0.992188 -0.328125 1.015625 -0.292969 C 1.035156 -0.257812 1.070312 -0.230469 1.121094 -0.214844 C 1.15625 -0.195312 1.210938 -0.183594 1.277344 -0.175781 C 1.339844 -0.167969 1.394531 -0.160156 1.445312 -0.160156 L 1.445312 0 L 0.175781 0 L 0.175781 -0.160156 C 0.210938 -0.160156 0.246094 -0.164062 0.289062 -0.167969 C 0.328125 -0.171875 0.363281 -0.179688 0.394531 -0.191406 C 0.4375 -0.203125 0.472656 -0.226562 0.496094 -0.265625 C 0.515625 -0.296875 0.527344 -0.347656 0.53125 -0.410156 L 0.53125 -1.894531 C 0.527344 -1.941406 0.515625 -1.992188 0.496094 -2.042969 C 0.46875 -2.089844 0.433594 -2.128906 0.394531 -2.160156 C 0.359375 -2.179688 0.324219 -2.195312 0.285156 -2.203125 C 0.242188 -2.210938 0.195312 -2.214844 0.148438 -2.222656 L 0.148438 -2.382812 L 0.949219 -2.4375 L 0.984375 -2.402344 L 0.984375 -2.0625 L 0.996094 -2.0625 C 1.097656 -2.195312 1.207031 -2.292969 1.332031 -2.363281 C 1.453125 -2.425781 1.566406 -2.460938 1.671875 -2.464844 C 1.773438 -2.460938 1.859375 -2.425781 1.921875 -2.363281 C 1.984375 -2.292969 2.015625 -2.207031 2.019531 -2.097656 Z "/>
</symbol>
<symbol overflow="visible" id="glyph0-4">
<path style="stroke:none;" d="M 2.621094 -1.207031 C 2.617188 -0.84375 2.503906 -0.539062 2.277344 -0.292969 C 2.046875 -0.0507812 1.78125 0.0703125 1.484375 0.0742188 C 1.347656 0.0703125 1.21875 0.0507812 1.09375 0.0117188 C 0.964844 -0.0273438 0.84375 -0.0820312 0.734375 -0.152344 L 0.554688 0.128906 L 0.402344 0.09375 C 0.40625 -0.0234375 0.410156 -0.167969 0.417969 -0.339844 C 0.417969 -0.507812 0.421875 -0.671875 0.425781 -0.832031 L 0.425781 -3.214844 C 0.421875 -3.265625 0.410156 -3.320312 0.386719 -3.378906 C 0.359375 -3.433594 0.324219 -3.472656 0.289062 -3.5 C 0.253906 -3.515625 0.203125 -3.53125 0.132812 -3.546875 C 0.0585938 -3.554688 0.00390625 -3.5625 -0.0390625 -3.570312 L -0.0390625 -3.726562 L 0.84375 -3.78125 L 0.878906 -3.742188 L 0.878906 -2.15625 L 0.894531 -2.152344 C 0.992188 -2.253906 1.101562 -2.335938 1.226562 -2.390625 C 1.34375 -2.445312 1.460938 -2.472656 1.578125 -2.472656 C 1.871094 -2.472656 2.121094 -2.355469 2.320312 -2.121094 C 2.519531 -1.886719 2.617188 -1.582031 2.621094 -1.207031 Z M 2.109375 -1.1875 C 2.109375 -1.308594 2.09375 -1.433594 2.070312 -1.558594 C 2.039062 -1.683594 2 -1.789062 1.949219 -1.882812 C 1.890625 -1.976562 1.816406 -2.054688 1.730469 -2.113281 C 1.636719 -2.171875 1.53125 -2.203125 1.410156 -2.203125 C 1.292969 -2.203125 1.191406 -2.179688 1.109375 -2.132812 C 1.019531 -2.085938 0.945312 -2.023438 0.878906 -1.953125 L 0.878906 -0.550781 C 0.886719 -0.511719 0.90625 -0.464844 0.9375 -0.414062 C 0.964844 -0.359375 1 -0.308594 1.050781 -0.265625 C 1.097656 -0.21875 1.15625 -0.183594 1.21875 -0.15625 C 1.28125 -0.125 1.355469 -0.109375 1.445312 -0.113281 C 1.640625 -0.109375 1.800781 -0.207031 1.925781 -0.398438 C 2.046875 -0.589844 2.109375 -0.851562 2.109375 -1.1875 Z "/>
</symbol>
<symbol overflow="visible" id="glyph0-5">
<path style="stroke:none;" d="M 1.34375 0 L 0.179688 0 L 0.179688 -0.160156 C 0.214844 -0.160156 0.253906 -0.164062 0.296875 -0.167969 C 0.332031 -0.171875 0.367188 -0.179688 0.398438 -0.191406 C 0.445312 -0.203125 0.476562 -0.226562 0.5 -0.265625 C 0.519531 -0.296875 0.53125 -0.347656 0.535156 -0.410156 L 0.535156 -1.894531 C 0.53125 -1.941406 0.519531 -1.988281 0.5 -2.035156 C 0.472656 -2.074219 0.441406 -2.113281 0.398438 -2.144531 C 0.367188 -2.164062 0.320312 -2.179688 0.265625 -2.195312 C 0.203125 -2.207031 0.152344 -2.214844 0.105469 -2.222656 L 0.105469 -2.382812 L 0.953125 -2.4375 L 0.988281 -2.402344 L 0.988281 -0.4375 C 0.984375 -0.378906 0.996094 -0.332031 1.019531 -0.296875 C 1.042969 -0.257812 1.078125 -0.230469 1.125 -0.214844 C 1.160156 -0.195312 1.195312 -0.183594 1.230469 -0.175781 C 1.261719 -0.167969 1.296875 -0.160156 1.34375 -0.160156 Z M 1.039062 -3.386719 C 1.035156 -3.292969 1.003906 -3.210938 0.945312 -3.140625 C 0.882812 -3.070312 0.808594 -3.035156 0.71875 -3.039062 C 0.632812 -3.035156 0.5625 -3.066406 0.503906 -3.136719 C 0.441406 -3.199219 0.410156 -3.277344 0.414062 -3.363281 C 0.410156 -3.453125 0.441406 -3.53125 0.503906 -3.597656 C 0.5625 -3.664062 0.632812 -3.695312 0.71875 -3.699219 C 0.808594 -3.695312 0.886719 -3.664062 0.949219 -3.605469 C 1.007812 -3.539062 1.035156 -3.46875 1.039062 -3.386719 Z "/>
</symbol>
<symbol overflow="visible" id="glyph0-6">
<path style="stroke:none;" d="M 2.554688 -2.257812 C 2.480469 -2.242188 2.410156 -2.214844 2.34375 -2.175781 C 2.277344 -2.132812 2.21875 -2.066406 2.175781 -1.96875 C 2.074219 -1.75 1.976562 -1.519531 1.875 -1.285156 C 1.773438 -1.042969 1.667969 -0.796875 1.558594 -0.539062 C 1.523438 -0.460938 1.488281 -0.371094 1.453125 -0.273438 C 1.414062 -0.167969 1.378906 -0.0703125 1.351562 0.0234375 L 1.164062 0.0234375 C 1.003906 -0.359375 0.859375 -0.707031 0.734375 -1.023438 C 0.601562 -1.335938 0.46875 -1.660156 0.328125 -1.992188 C 0.296875 -2.066406 0.242188 -2.125 0.171875 -2.167969 C 0.09375 -2.207031 0.0234375 -2.230469 -0.046875 -2.246094 L -0.046875 -2.40625 L 1.066406 -2.40625 L 1.066406 -2.234375 C 1.019531 -2.230469 0.957031 -2.222656 0.882812 -2.207031 C 0.808594 -2.1875 0.773438 -2.160156 0.773438 -2.128906 C 0.773438 -2.121094 0.777344 -2.109375 0.785156 -2.089844 C 0.792969 -2.070312 0.800781 -2.046875 0.8125 -2.023438 C 0.875 -1.851562 0.96875 -1.621094 1.09375 -1.324219 C 1.214844 -1.027344 1.3125 -0.785156 1.390625 -0.605469 C 1.445312 -0.742188 1.519531 -0.917969 1.613281 -1.128906 C 1.699219 -1.335938 1.796875 -1.570312 1.898438 -1.828125 C 1.914062 -1.867188 1.929688 -1.90625 1.945312 -1.949219 C 1.960938 -1.984375 1.96875 -2.023438 1.96875 -2.066406 C 1.96875 -2.089844 1.953125 -2.113281 1.925781 -2.136719 C 1.898438 -2.15625 1.867188 -2.175781 1.832031 -2.199219 C 1.789062 -2.210938 1.75 -2.222656 1.71875 -2.234375 C 1.679688 -2.238281 1.652344 -2.246094 1.632812 -2.25 L 1.632812 -2.40625 L 2.554688 -2.40625 Z "/>
</symbol>
<symbol overflow="visible" id="glyph0-7">
<path style="stroke:none;" d="M 2.523438 -1.226562 C 2.519531 -1.054688 2.492188 -0.890625 2.441406 -0.726562 C 2.386719 -0.5625 2.3125 -0.421875 2.214844 -0.3125 C 2.101562 -0.179688 1.96875 -0.0820312 1.824219 -0.0195312 C 1.671875 0.0429688 1.507812 0.0703125 1.324219 0.0742188 C 1.167969 0.0703125 1.019531 0.0429688 0.886719 -0.0117188 C 0.746094 -0.0703125 0.625 -0.152344 0.519531 -0.265625 C 0.410156 -0.371094 0.324219 -0.503906 0.265625 -0.664062 C 0.199219 -0.820312 0.167969 -1 0.171875 -1.195312 C 0.167969 -1.570312 0.277344 -1.875 0.5 -2.117188 C 0.714844 -2.351562 1.003906 -2.472656 1.359375 -2.476562 C 1.695312 -2.472656 1.972656 -2.359375 2.195312 -2.132812 C 2.410156 -1.90625 2.519531 -1.601562 2.523438 -1.226562 Z M 2.019531 -1.222656 C 2.015625 -1.34375 2.003906 -1.472656 1.980469 -1.609375 C 1.957031 -1.742188 1.917969 -1.859375 1.871094 -1.957031 C 1.816406 -2.054688 1.75 -2.132812 1.664062 -2.195312 C 1.578125 -2.253906 1.472656 -2.285156 1.355469 -2.289062 C 1.226562 -2.285156 1.121094 -2.253906 1.035156 -2.195312 C 0.945312 -2.132812 0.871094 -2.050781 0.816406 -1.945312 C 0.761719 -1.84375 0.726562 -1.726562 0.707031 -1.601562 C 0.683594 -1.472656 0.671875 -1.351562 0.675781 -1.234375 C 0.671875 -1.074219 0.6875 -0.929688 0.714844 -0.800781 C 0.738281 -0.664062 0.777344 -0.546875 0.835938 -0.445312 C 0.886719 -0.339844 0.957031 -0.257812 1.042969 -0.199219 C 1.128906 -0.140625 1.230469 -0.109375 1.355469 -0.113281 C 1.554688 -0.109375 1.71875 -0.207031 1.839844 -0.40625 C 1.957031 -0.601562 2.015625 -0.875 2.019531 -1.222656 Z "/>
</symbol>
<symbol overflow="visible" id="glyph0-8">
<path style="stroke:none;" d="M 1.765625 -1.179688 C 1.828125 -1.117188 1.878906 -1.050781 1.917969 -0.976562 C 1.949219 -0.898438 1.96875 -0.804688 1.972656 -0.695312 C 1.96875 -0.46875 1.886719 -0.285156 1.722656 -0.148438 C 1.554688 -0.0078125 1.335938 0.0585938 1.074219 0.0625 C 0.929688 0.0585938 0.800781 0.0351562 0.6875 -0.0117188 C 0.566406 -0.0585938 0.484375 -0.105469 0.433594 -0.152344 L 0.386719 0.0078125 L 0.203125 0.0078125 L 0.179688 -0.828125 L 0.347656 -0.828125 C 0.355469 -0.761719 0.382812 -0.6875 0.429688 -0.605469 C 0.46875 -0.519531 0.519531 -0.445312 0.582031 -0.375 C 0.644531 -0.304688 0.722656 -0.242188 0.8125 -0.195312 C 0.898438 -0.140625 0.996094 -0.117188 1.109375 -0.121094 C 1.261719 -0.117188 1.382812 -0.152344 1.46875 -0.226562 C 1.550781 -0.296875 1.59375 -0.398438 1.597656 -0.535156 C 1.59375 -0.597656 1.582031 -0.65625 1.558594 -0.710938 C 1.53125 -0.757812 1.492188 -0.804688 1.441406 -0.84375 C 1.386719 -0.878906 1.320312 -0.910156 1.242188 -0.941406 C 1.164062 -0.96875 1.074219 -1 0.980469 -1.03125 C 0.902344 -1.054688 0.820312 -1.085938 0.726562 -1.125 C 0.632812 -1.164062 0.550781 -1.210938 0.484375 -1.265625 C 0.410156 -1.320312 0.351562 -1.390625 0.308594 -1.476562 C 0.261719 -1.558594 0.238281 -1.65625 0.242188 -1.769531 C 0.238281 -1.964844 0.3125 -2.128906 0.460938 -2.269531 C 0.605469 -2.402344 0.800781 -2.472656 1.050781 -2.476562 C 1.140625 -2.472656 1.238281 -2.460938 1.339844 -2.4375 C 1.4375 -2.414062 1.515625 -2.382812 1.578125 -2.351562 L 1.636719 -2.476562 L 1.8125 -2.476562 L 1.847656 -1.703125 L 1.679688 -1.703125 C 1.644531 -1.875 1.570312 -2.015625 1.457031 -2.125 C 1.34375 -2.230469 1.207031 -2.285156 1.046875 -2.289062 C 0.910156 -2.285156 0.804688 -2.25 0.730469 -2.1875 C 0.652344 -2.117188 0.613281 -2.039062 0.617188 -1.945312 C 0.613281 -1.871094 0.625 -1.808594 0.652344 -1.761719 C 0.675781 -1.710938 0.714844 -1.667969 0.765625 -1.636719 C 0.8125 -1.601562 0.875 -1.574219 0.949219 -1.546875 C 1.023438 -1.515625 1.113281 -1.480469 1.226562 -1.449219 C 1.328125 -1.410156 1.429688 -1.371094 1.527344 -1.328125 C 1.621094 -1.28125 1.699219 -1.230469 1.765625 -1.179688 Z "/>
</symbol>
</g>
</defs>
<g id="surface11">
<g style="fill:rgb(100%,100%,100%);fill-opacity:1;">
  <use xlink:href="#glyph0-1" x="30" y="24.584961"/>
  <use xlink:href="#glyph0-2" x="34" y="24.584961"/>
  <use xlink:href="#glyph0-3" x="36" y="24.584961"/>
  <use xlink:href="#glyph0-4" x="38" y="24.584961"/>
  <use xlink:href="#glyph0-5" x="41" y="24.584961"/>
  <use xlink:href="#glyph0-6" x="42" y="24.584961"/>
  <use xlink:href="#glyph0-7" x="44" y="24.584961"/>
  <use xlink:href="#glyph0-3" x="47" y="24.584961"/>
  <use xlink:href="#glyph0-2" x="49" y="24.584961"/>
  <use xlink:href="#glyph0-8" x="51" y="24.584961"/>
</g>
</g>
</svg>
