<?xml version="1.0" encoding="UTF-8"?>
<svg xmlns="http://www.w3.org/2000/svg" xmlns:xlink="http://www.w3.org/1999/xlink" width="1920pt" height="1080pt" viewBox="0 0 1920 1080" version="1.1">
<defs>
<g>
<symbol overflow="visible" id="glyph0-0">
<path style="stroke:none;" d="M 1.667969 0 L 1.667969 -10 L 11.667969 -10 L 11.667969 0 Z M 2.5 -0.832031 L 10.832031 -0.832031 L 10.832031 -9.167969 L 2.5 -9.167969 Z "/>
</symbol>
<symbol overflow="visible" id="glyph0-1">
<path style="stroke:none;" d="M 7.707031 -6.960938 C 7.703125 -6.476562 7.609375 -6.046875 7.421875 -5.679688 C 7.230469 -5.304688 6.96875 -5 6.640625 -4.757812 C 6.304688 -4.515625 5.941406 -4.335938 5.550781 -4.222656 C 5.152344 -4.109375 4.734375 -4.054688 4.296875 -4.054688 L 3.261719 -4.054688 L 3.261719 -1.257812 C 3.257812 -1.101562 3.28125 -0.96875 3.335938 -0.855469 C 3.382812 -0.738281 3.488281 -0.648438 3.644531 -0.59375 C 3.722656 -0.558594 3.859375 -0.53125 4.058594 -0.507812 C 4.253906 -0.480469 4.433594 -0.464844 4.601562 -0.460938 L 4.601562 0 L 0.636719 0 L 0.636719 -0.460938 C 0.738281 -0.46875 0.890625 -0.484375 1.089844 -0.507812 C 1.285156 -0.527344 1.421875 -0.554688 1.503906 -0.59375 C 1.632812 -0.644531 1.726562 -0.726562 1.785156 -0.839844 C 1.84375 -0.945312 1.875 -1.085938 1.875 -1.257812 L 1.875 -7.921875 C 1.875 -8.074219 1.851562 -8.210938 1.808594 -8.332031 C 1.765625 -8.453125 1.664062 -8.542969 1.503906 -8.605469 C 1.335938 -8.660156 1.171875 -8.699219 1.011719 -8.726562 C 0.847656 -8.746094 0.707031 -8.765625 0.59375 -8.777344 L 0.59375 -9.238281 L 4.8125 -9.238281 C 5.667969 -9.234375 6.367188 -9.027344 6.902344 -8.617188 C 7.4375 -8.199219 7.703125 -7.648438 7.707031 -6.960938 Z M 5.730469 -5.382812 C 5.875 -5.589844 5.96875 -5.804688 6.019531 -6.03125 C 6.066406 -6.25 6.09375 -6.453125 6.09375 -6.632812 C 6.09375 -6.878906 6.0625 -7.128906 6.003906 -7.386719 C 5.945312 -7.640625 5.84375 -7.863281 5.703125 -8.058594 C 5.546875 -8.261719 5.347656 -8.421875 5.105469 -8.535156 C 4.855469 -8.644531 4.546875 -8.699219 4.179688 -8.703125 L 3.261719 -8.703125 L 3.261719 -4.621094 L 3.925781 -4.621094 C 4.394531 -4.617188 4.773438 -4.691406 5.066406 -4.839844 C 5.359375 -4.984375 5.582031 -5.164062 5.730469 -5.382812 Z "/>
</symbol>
<symbol overflow="visible" id="glyph0-2">
<path style="stroke:none;" d="M 7 -2.996094 C 6.996094 -2.542969 6.914062 -2.121094 6.753906 -1.726562 C 6.589844 -1.332031 6.371094 -0.996094 6.101562 -0.722656 C 5.78125 -0.402344 5.429688 -0.167969 5.046875 -0.0195312 C 4.660156 0.132812 4.261719 0.203125 3.847656 0.207031 C 3.363281 0.203125 2.925781 0.117188 2.539062 -0.0585938 C 2.144531 -0.234375 1.8125 -0.484375 1.542969 -0.8125 C 1.261719 -1.140625 1.046875 -1.542969 0.898438 -2.023438 C 0.742188 -2.496094 0.667969 -3.03125 0.671875 -3.628906 C 0.667969 -5.175781 1.128906 -6.484375 2.054688 -7.546875 C 2.972656 -8.609375 4.207031 -9.246094 5.761719 -9.460938 L 5.878906 -8.875 L 5.292969 -8.769531 C 4.347656 -8.460938 3.621094 -7.988281 3.105469 -7.347656 C 2.589844 -6.707031 2.257812 -5.929688 2.109375 -5.015625 C 2.480469 -5.335938 2.847656 -5.5625 3.214844 -5.703125 C 3.578125 -5.835938 3.960938 -5.90625 4.367188 -5.90625 C 5.089844 -5.90625 5.710938 -5.625 6.226562 -5.070312 C 6.738281 -4.511719 6.996094 -3.820312 7 -2.996094 Z M 5.585938 -2.824219 C 5.582031 -3.527344 5.421875 -4.089844 5.101562 -4.515625 C 4.777344 -4.941406 4.34375 -5.15625 3.800781 -5.15625 C 3.472656 -5.15625 3.167969 -5.09375 2.890625 -4.972656 C 2.609375 -4.851562 2.339844 -4.648438 2.082031 -4.363281 C 2.074219 -4.308594 2.070312 -4.1875 2.0625 -4 C 2.054688 -3.808594 2.050781 -3.660156 2.050781 -3.554688 C 2.050781 -2.535156 2.214844 -1.738281 2.546875 -1.167969 C 2.878906 -0.589844 3.316406 -0.304688 3.859375 -0.304688 C 4.375 -0.304688 4.792969 -0.527344 5.109375 -0.976562 C 5.425781 -1.425781 5.582031 -2.042969 5.585938 -2.824219 Z "/>
</symbol>
</g>
</defs>
<g id="surface26">
<g style="fill:rgb(100%,100%,100%);fill-opacity:1;">
  <use xlink:href="#glyph0-1" x="30" y="32.226562"/>
  <use xlink:href="#glyph0-2" x="38" y="32.226562"/>
</g>
</g>
</svg>
